PathFileType	4	(X/Y/Z)	/Users/visionmauri/Downloads/Videos/OAW04-top_Sports2D/OAW04-top_Sports2D_px_person00.trc
DataRate	CameraRate	NumFrames	NumMarkers	Units	OrigDataRate	OrigDataStartFrame	OrigNumFrames
30.0	30.0	6	22	m	30.0	887	2367
Frame#	Time	Hip			RHip			RKnee			RAnkle			RBigToe			RSmallToe			RHeel			LHip			LKnee			LAnkle			LBigToe			LSmallToe			LHeel			Neck			Head			Nose			RShoulder			RElbow			RWrist			LShoulder			LElbow			LWrist			
		X1	Y1	Z1	X2	Y2	Z2	X3	Y3	Z3	X4	Y4	Z4	X5	Y5	Z5	X6	Y6	Z6	X7	Y7	Z7	X8	Y8	Z8	X9	Y9	Z9	X10	Y10	Z10	X11	Y11	Z11	X12	Y12	Z12	X13	Y13	Z13	X14	Y14	Z14	X15	Y15	Z15	X16	Y16	Z16	X17	Y17	Z17	X18	Y18	Z18	X19	Y19	Z19	X20	Y20	Z20	X21	Y21	Z21	X22	Y22	Z22
887	29.579163144547763	629.6835405519427	781.7293371444052	0.0	641.9736478181577	783.298615316533	0.0	640.347385373531	825.2120448685714	0.0	639.372122817346	863.3147115218895	0.0	634.9275789593582	883.8193165290133	0.0	642.9506488178164	883.4599338577395	0.0	637.7416091781802	872.5546221177606	0.0	618.2353697690876	782.7972538351817	0.0	619.9107819294453	823.6332739120115	0.0	622.2845983588219	865.630949749231	0.0	620.6678958641312	875.3980270332801	0.0	614.8181666050293	877.4716183539166	0.0	623.40885936512	875.9970510147978	0.0	633.6737821513118	715.0386748780794	0.0	635.8817993394471	689.5794247955062	0.0	634.6903263363515	708.2109761162044	0.0	654.7052057439473	724.6170297894392	0.0	664.2815081006645	756.2992246444089	0.0	662.0097920810491	782.1296114571591	0.0	611.7495526291123	723.5480798040494	0.0	600.2639270626003	754.3140982738507	0.0	597.532998883864	782.748013533083	0.0
888	29.612510566356725	630.7757054125378	778.4101525911921	0.0	642.7502042753591	779.0548600590666	0.0	641.7049037270411	820.822076061704	0.0	641.7650834025703	860.0213833987898	0.0	638.978667594356	874.8630548738145	0.0	645.7736561015515	875.4783923685679	0.0	641.2993407593121	869.623585792307	0.0	619.4765348203109	778.2149778523378	0.0	619.991509360498	819.3424938403804	0.0	622.2603657861646	860.4797723514446	0.0	620.9672566599982	874.8108930483767	0.0	615.0457160782221	875.5823140573073	0.0	623.8688546119549	870.1922457520211	0.0	636.0366830531387	714.9658991885591	0.0	639.1358182779273	690.4600705689495	0.0	636.0227101587683	708.4553110732278	0.0	655.9927952432013	723.3878718696875	0.0	665.542625225896	755.6701596398942	0.0	666.0470074523344	783.8023660980373	0.0	614.1597686560472	721.5105017965386	0.0	602.7031161487356	751.3994148116768	0.0	599.2097386649709	776.648335762932	0.0
889	29.645857988165684	632.4762095131373	775.3415446210382	0.0	643.9118787762068	774.8807004058734	0.0	642.5826449959319	817.3529769814252	0.0	643.2513480896938	857.1405291983663	0.0	641.0281617172026	868.5629412702626	0.0	647.2402275119904	869.618578661344	0.0	643.7892525587736	867.2322978871157	0.0	621.272868069299	774.2096477431269	0.0	619.903467012494	815.6780055466005	0.0	622.3869815746698	854.6979588899826	0.0	620.9929040295003	874.464940047801	0.0	615.6845485482339	873.5223064536638	0.0	625.015326316417	863.0986997479715	0.0	637.6561122508846	714.5296588341466	0.0	640.7341103903693	690.9517399291834	0.0	637.2505412597948	708.8813110501286	0.0	657.1114705527536	722.2361158200597	0.0	666.7328802220563	754.5151848320289	0.0	669.3323733227569	784.4020708100448	0.0	615.9854378345279	719.6559713847793	0.0	604.5543596470529	749.2770649570055	0.0	599.9584653514072	772.7589036609004	0.0
890	29.679205409974646	634.0132985401714	773.5779411943518	0.0	645.1325650533979	772.4473567340929	0.0	642.8016401252434	815.9672198625303	0.0	643.5222247029172	855.9347410371558	0.0	640.7085353297257	867.1449326106656	0.0	647.1591973362301	868.0268333782981	0.0	644.6071367483174	866.4412888096097	0.0	622.8117926419683	772.3493740943699	0.0	619.6082207423245	813.9374322238199	0.0	622.8378279891535	850.0670083713483	0.0	620.5869042860118	873.7938005785971	0.0	616.436511693832	871.6115458918002	0.0	626.5678650775714	856.9761479523543	0.0	638.0093618401473	713.7261415113696	0.0	640.1960122786229	691.0439812428705	0.0	638.1248157239477	709.2019288613445	0.0	657.7349830099736	721.635102351734	0.0	667.3882154634077	753.3324176014919	0.0	670.7944017641736	783.7110980570303	0.0	616.6932399136817	718.7592146261152	0.0	605.3342420592995	748.7266862157672	0.0	599.4969490316107	772.3811608388189	0.0
891	29.712552831783604	634.8446437883205	772.9088075071105	0.0	645.9856986441004	771.6517744826748	0.0	642.796006792303	815.7254616964782	0.0	643.3961383085791	855.9361242776107	0.0	639.7952481367694	868.0166401611514	0.0	646.7714606245842	868.6244147051816	0.0	644.633032028234	866.6466771510226	0.0	623.6038610991087	772.0594616151593	0.0	619.2984465424419	813.4681753221465	0.0	623.3953022939506	847.3278505057497	0.0	620.0399308170425	872.5645222104584	0.0	616.8935075252839	870.0267420326211	0.0	627.800994711956	853.2120368078109	0.0	637.8307618673924	712.9460757704246	0.0	639.1655276087924	691.0872653456734	0.0	638.682368241975	709.284242990278	0.0	657.9941436256449	721.5151216474577	0.0	667.6020655862282	752.6456427975321	0.0	671.0925616190664	782.7800542289551	0.0	616.8487426186819	718.6338178137303	0.0	605.5705326215458	748.9808948521915	0.0	598.7044485801923	773.4211769004561	0.0
892	29.745900253592566	635.05516362123	772.7811072341265	0.0	646.3003295806349	771.6075911144752	0.0	642.8101597401695	815.688040632202	0.0	643.3565651394366	856.1735848871175	0.0	639.3678033332429	868.6784904921825	0.0	646.6833123526641	869.1955891637507	0.0	644.5454809139826	866.9137501722323	0.0	623.7892696328099	772.2187691386363	0.0	619.1510702044633	813.390408190411	0.0	623.7069472725701	846.375421449296	0.0	619.7222176319916	871.550727858256	0.0	616.9981497249881	869.1553573215873	0.0	628.30291843464	851.8976209748215	0.0	637.7263027406542	712.5580040371774	0.0	638.7456431857789	691.1698697320326	0.0	638.924577075219	709.2505563955953	0.0	658.0647266629989	721.5722867159183	0.0	667.6342490598324	752.4834973220991	0.0	671.0481623768089	782.35388801946	0.0	616.9078908612926	718.7444071275792	0.0	605.6590371392787	749.2158086588412	0.0	598.2878045541836	774.0637402126555	0.0
